<?xml version="1.0" encoding="UTF-8"?>
<!DOCTYPE svg PUBLIC "-//W3C//DTD SVG 1.1//EN" "http://www.w3.org/Graphics/SVG/1.1/DTD/svg11.dtd">
<svg xmlns="http://www.w3.org/2000/svg" xmlns:xlink="http://www.w3.org/1999/xlink" version="1.1" width="195px" height="195px" viewBox="-0.5 -0.5 195 195"><defs/><g><ellipse cx="20" cy="20" rx="20" ry="20" fill="none" stroke="rgb(0, 0, 0)" pointer-events="all"/><ellipse cx="80" cy="20" rx="20" ry="20" fill="none" stroke="rgb(0, 0, 0)" pointer-events="all"/><ellipse cx="80" cy="80" rx="20" ry="20" fill="none" stroke="rgb(0, 0, 0)" pointer-events="all"/><ellipse cx="20" cy="80" rx="20" ry="20" fill="none" stroke="rgb(0, 0, 0)" pointer-events="all"/><path d="M 40 20 L 53.63 20" fill="none" stroke="rgb(0, 0, 0)" stroke-miterlimit="10" pointer-events="stroke"/><path d="M 58.88 20 L 51.88 23.5 L 53.63 20 L 51.88 16.5 Z" fill="rgb(0, 0, 0)" stroke="rgb(0, 0, 0)" stroke-miterlimit="10" pointer-events="all"/><path d="M 34.14 34.14 L 61.36 61.36" fill="none" stroke="rgb(0, 0, 0)" stroke-miterlimit="10" pointer-events="stroke"/><path d="M 65.07 65.07 L 57.64 62.59 L 61.36 61.36 L 62.59 57.64 Z" fill="rgb(0, 0, 0)" stroke="rgb(0, 0, 0)" stroke-miterlimit="10" pointer-events="all"/><path d="M 40 80 L 53.63 80" fill="none" stroke="rgb(0, 0, 0)" stroke-miterlimit="10" pointer-events="stroke"/><path d="M 58.88 80 L 51.88 83.5 L 53.63 80 L 51.88 76.5 Z" fill="rgb(0, 0, 0)" stroke="rgb(0, 0, 0)" stroke-miterlimit="10" pointer-events="all"/><path d="M 20 40 L 20 53.63" fill="none" stroke="rgb(0, 0, 0)" stroke-miterlimit="10" pointer-events="stroke"/><path d="M 20 58.88 L 16.5 51.88 L 20 53.63 L 23.5 51.88 Z" fill="rgb(0, 0, 0)" stroke="rgb(0, 0, 0)" stroke-miterlimit="10" pointer-events="all"/><ellipse cx="140" cy="20" rx="20" ry="20" fill="none" stroke="rgb(0, 0, 0)" pointer-events="all"/><path d="M 140 60 L 140 46.37" fill="none" stroke="rgb(0, 0, 0)" stroke-miterlimit="10" pointer-events="stroke"/><path d="M 140 41.12 L 143.5 48.12 L 140 46.37 L 136.5 48.12 Z" fill="rgb(0, 0, 0)" stroke="rgb(0, 0, 0)" stroke-miterlimit="10" pointer-events="all"/><ellipse cx="140" cy="80" rx="20" ry="20" fill="none" stroke="rgb(0, 0, 0)" pointer-events="all"/><path d="M 160 20 L 173.63 20" fill="none" stroke="rgb(0, 0, 0)" stroke-miterlimit="10" pointer-events="stroke"/><path d="M 178.88 20 L 171.88 23.5 L 173.63 20 L 171.88 16.5 Z" fill="rgb(0, 0, 0)" stroke="rgb(0, 0, 0)" stroke-miterlimit="10" pointer-events="all"/><path d="M 154.14 34.14 L 181.36 61.36" fill="none" stroke="rgb(0, 0, 0)" stroke-miterlimit="10" pointer-events="stroke"/><path d="M 185.07 65.07 L 177.64 62.59 L 181.36 61.36 L 182.59 57.64 Z" fill="rgb(0, 0, 0)" stroke="rgb(0, 0, 0)" stroke-miterlimit="10" pointer-events="all"/><ellipse cx="20" cy="140" rx="20" ry="20" fill="none" stroke="rgb(0, 0, 0)" pointer-events="all"/><ellipse cx="80" cy="140" rx="20" ry="20" fill="none" stroke="rgb(0, 0, 0)" pointer-events="all"/><path d="M 34.14 125.86 L 61.36 98.64" fill="none" stroke="rgb(0, 0, 0)" stroke-miterlimit="10" pointer-events="stroke"/><path d="M 65.07 94.93 L 62.59 102.36 L 61.36 98.64 L 57.64 97.41 Z" fill="rgb(0, 0, 0)" stroke="rgb(0, 0, 0)" stroke-miterlimit="10" pointer-events="all"/><path d="M 40 140 L 53.63 140" fill="none" stroke="rgb(0, 0, 0)" stroke-miterlimit="10" pointer-events="stroke"/><path d="M 58.88 140 L 51.88 143.5 L 53.63 140 L 51.88 136.5 Z" fill="rgb(0, 0, 0)" stroke="rgb(0, 0, 0)" stroke-miterlimit="10" pointer-events="all"/><ellipse cx="140" cy="140" rx="20" ry="20" fill="none" stroke="rgb(0, 0, 0)" pointer-events="all"/><path d="M 160 140 L 173.63 140" fill="none" stroke="rgb(0, 0, 0)" stroke-miterlimit="10" pointer-events="stroke"/><path d="M 178.88 140 L 171.88 143.5 L 173.63 140 L 171.88 136.5 Z" fill="rgb(0, 0, 0)" stroke="rgb(0, 0, 0)" stroke-miterlimit="10" pointer-events="all"/><path d="M 154.14 154.14 L 181.36 181.36" fill="none" stroke="rgb(0, 0, 0)" stroke-miterlimit="10" pointer-events="stroke"/><path d="M 185.07 185.07 L 177.64 182.59 L 181.36 181.36 L 182.59 177.64 Z" fill="rgb(0, 0, 0)" stroke="rgb(0, 0, 0)" stroke-miterlimit="10" pointer-events="all"/><path d="M 94.14 65.86 L 121.36 38.64" fill="none" stroke="rgb(0, 0, 0)" stroke-miterlimit="10" pointer-events="stroke"/><path d="M 125.07 34.93 L 122.59 42.36 L 121.36 38.64 L 117.64 37.41 Z" fill="rgb(0, 0, 0)" stroke="rgb(0, 0, 0)" stroke-miterlimit="10" pointer-events="all"/><path d="M 94.14 94.14 L 121.36 121.36" fill="none" stroke="rgb(0, 0, 0)" stroke-miterlimit="10" pointer-events="stroke"/><path d="M 125.07 125.07 L 117.64 122.59 L 121.36 121.36 L 122.59 117.64 Z" fill="rgb(0, 0, 0)" stroke="rgb(0, 0, 0)" stroke-miterlimit="10" pointer-events="all"/><path d="M 140 100 L 140 113.63" fill="none" stroke="rgb(0, 0, 0)" stroke-miterlimit="10" pointer-events="stroke"/><path d="M 140 118.88 L 136.5 111.88 L 140 113.63 L 143.5 111.88 Z" fill="rgb(0, 0, 0)" stroke="rgb(0, 0, 0)" stroke-miterlimit="10" pointer-events="all"/><path d="M 125.86 154.14 L 98.64 181.36" fill="none" stroke="rgb(0, 0, 0)" stroke-miterlimit="10" pointer-events="stroke"/><path d="M 94.93 185.07 L 97.41 177.64 L 98.64 181.36 L 102.36 182.59 Z" fill="rgb(0, 0, 0)" stroke="rgb(0, 0, 0)" stroke-miterlimit="10" pointer-events="all"/><path d="M 140 180 L 140 166.37" fill="none" stroke="rgb(0, 0, 0)" stroke-miterlimit="10" pointer-events="stroke"/><path d="M 140 161.12 L 143.5 168.12 L 140 166.37 L 136.5 168.12 Z" fill="rgb(0, 0, 0)" stroke="rgb(0, 0, 0)" stroke-miterlimit="10" pointer-events="all"/><path d="M 34.14 154.14 L 61.36 181.36" fill="none" stroke="rgb(0, 0, 0)" stroke-miterlimit="10" pointer-events="stroke"/><path d="M 65.07 185.07 L 57.64 182.59 L 61.36 181.36 L 62.59 177.64 Z" fill="rgb(0, 0, 0)" stroke="rgb(0, 0, 0)" stroke-miterlimit="10" pointer-events="all"/></g></svg>