<svg version="1.2" xmlns="http://www.w3.org/2000/svg" width="1620" height="1080">
<g id="bg">
<ellipse cx="20" cy="20" rx="20" ry="20"/><ellipse cx="80" cy="20" rx="20" ry="20"/><ellipse cx="80" cy="80" rx="20" ry="20"/><ellipse cx="20" cy="80" rx="20" ry="20"/><path d="M 40 20 L 53.63 20"/><path d="M 58.88 20 L 51.88 23.5 L 53.63 20 L 51.88 16.5 Z"/><path d="M 34.14 34.14 L 61.36 61.36"/><path d="M 65.07 65.07 L 57.64 62.59 L 61.36 61.36 L 62.59 57.64 Z"/><path d="M 40 80 L 53.63 80"/><path d="M 58.88 80 L 51.88 83.5 L 53.63 80 L 51.88 76.5 Z"/><path d="M 20 40 L 20 53.63"/><path d="M 20 58.88 L 16.5 51.88 L 20 53.63 L 23.5 51.88 Z"/><ellipse cx="140" cy="20" rx="20" ry="20"/><path d="M 140 60 L 140 46.37"/><path d="M 140 41.12 L 143.5 48.12 L 140 46.37 L 136.5 48.12 Z"/><ellipse cx="140" cy="80" rx="20" ry="20"/><path d="M 160 20 L 173.63 20"/><path d="M 178.88 20 L 171.88 23.5 L 173.63 20 L 171.88 16.5 Z"/><path d="M 154.14 34.14 L 181.36 61.36"/><path d="M 185.07 65.07 L 177.64 62.59 L 181.36 61.36 L 182.59 57.64 Z"/><ellipse cx="20" cy="140" rx="20" ry="20"/><ellipse cx="80" cy="140" rx="20" ry="20"/><path d="M 34.14 125.86 L 61.36 98.64"/><path d="M 65.07 94.93 L 62.59 102.36 L 61.36 98.64 L 57.64 97.41 Z"/><path d="M 40 140 L 53.63 140"/><path d="M 58.88 140 L 51.88 143.5 L 53.63 140 L 51.88 136.5 Z"/><ellipse cx="140" cy="140" rx="20" ry="20"/><path d="M 160 140 L 173.63 140"/><path d="M 178.88 140 L 171.88 143.5 L 173.63 140 L 171.88 136.5 Z"/><path d="M 154.14 154.14 L 181.36 181.36"/><path d="M 185.07 185.07 L 177.64 182.59 L 181.36 181.36 L 182.59 177.64 Z"/><path d="M 94.14 65.86 L 121.36 38.64"/><path d="M 125.07 34.93 L 122.59 42.36 L 121.36 38.64 L 117.64 37.41 Z"/><path d="M 94.14 94.14 L 121.36 121.36"/><path d="M 125.07 125.07 L 117.64 122.59 L 121.36 121.36 L 122.59 117.64 Z"/><path d="M 140 100 L 140 113.63"/><path d="M 140 118.88 L 136.5 111.88 L 140 113.63 L 143.5 111.88 Z"/><path d="M 125.86 154.14 L 98.64 181.36"/><path d="M 94.93 185.07 L 97.41 177.64 L 98.64 181.36 L 102.36 182.59 Z"/><path d="M 140 180 L 140 166.37"/><path d="M 140 161.12 L 143.5 168.12 L 140 166.37 L 136.5 168.12 Z"/><path d="M 34.14 154.14 L 61.36 181.36"/><path d="M 65.07 185.07 L 57.64 182.59 L 61.36 181.36 L 62.59 177.64 Z"/>
</g>
<use href="#bg" x="180" y="0"/>
<use href="#bg" x="360" y="0"/>
<use href="#bg" x="540" y="0"/>
<use href="#bg" x="720" y="0"/>
<use href="#bg" x="900" y="0"/>
<use href="#bg" x="1080" y="0"/>
<use href="#bg" x="1260" y="0"/>
<use href="#bg" x="1440" y="0"/>
<use href="#bg" x="0" y="180"/>
<use href="#bg" x="180" y="180"/>
<use href="#bg" x="360" y="180"/>
<use href="#bg" x="540" y="180"/>
<use href="#bg" x="720" y="180"/>
<use href="#bg" x="900" y="180"/>
<use href="#bg" x="1080" y="180"/>
<use href="#bg" x="1260" y="180"/>
<use href="#bg" x="1440" y="180"/>
<use href="#bg" x="0" y="360"/>
<use href="#bg" x="180" y="360"/>
<use href="#bg" x="360" y="360"/>
<use href="#bg" x="540" y="360"/>
<use href="#bg" x="720" y="360"/>
<use href="#bg" x="900" y="360"/>
<use href="#bg" x="1080" y="360"/>
<use href="#bg" x="1260" y="360"/>
<use href="#bg" x="1440" y="360"/>
<use href="#bg" x="0" y="540"/>
<use href="#bg" x="180" y="540"/>
<use href="#bg" x="360" y="540"/>
<use href="#bg" x="540" y="540"/>
<use href="#bg" x="720" y="540"/>
<use href="#bg" x="900" y="540"/>
<use href="#bg" x="1080" y="540"/>
<use href="#bg" x="1260" y="540"/>
<use href="#bg" x="1440" y="540"/>
<use href="#bg" x="0" y="720"/>
<use href="#bg" x="180" y="720"/>
<use href="#bg" x="360" y="720"/>
<use href="#bg" x="540" y="720"/>
<use href="#bg" x="720" y="720"/>
<use href="#bg" x="900" y="720"/>
<use href="#bg" x="1080" y="720"/>
<use href="#bg" x="1260" y="720"/>
<use href="#bg" x="1440" y="720"/>
<use href="#bg" x="0" y="900"/>
<use href="#bg" x="180" y="900"/>
<use href="#bg" x="360" y="900"/>
<use href="#bg" x="540" y="900"/>
<use href="#bg" x="720" y="900"/>
<use href="#bg" x="900" y="900"/>
<use href="#bg" x="1080" y="900"/>
<use href="#bg" x="1260" y="900"/>
<use href="#bg" x="1440" y="900"/>

<style>
ellipse, path{stroke: rgb(30, 63, 70); fill: none;}
@keyframes x{  0%, 10%{ stroke: rgb(30, 63, 70); }  5%{ stroke: rgb(108, 162, 173) } }
ellipse{
  animation: x infinite 120s;
  animation-delay: calc(var(--a, 0s) + var(--b, 0s) + var(--c, 0s) + var(--d, 0s) + var(--e, 0s) + var(--f, 0s));
}
ellipse:nth-of-type(3){ --c: 34.2s }
ellipse:nth-of-type(3n){ --d: 12.6s }
ellipse:nth-of-type(4n-2){ --d: 91.8s }
ellipse:nth-of-type(2n+4){ --a: 16.1s }
use:nth-of-type(5n){  --e: 38.2s }
use:nth-of-type(5n+2){  --b: 6.1s }
use:nth-of-type(3n){  --f: -49.5s }
use:nth-of-type(4n+3){  --c: 2.6s }
</style></svg>